<svg xmlns="http://www.w3.org/2000/svg" viewBox="0 0 500 500"><!--Typing--><g id="freepik--background-simple--inject-1--inject-1"><path d="M422.41,180c2.27-23.46,7.7-45.67-1.9-68.23C402.89,70.37,349.74,48.39,308.44,68,287.32,78,269.26,92.63,246,98,183.22,112.49,86.32,35.29,52.15,125.17c-11.73,30.84-7,71.48,14.21,97.26,6.81,8.27,15.13,15.47,20.17,24.93C100.32,273.25,80.8,301.7,72,325.85c-20.9,57.07,57.9,88.65,100.67,94.47C243.37,430,301.69,349,372,382c49,23,92-33,83-89-5.89-36.66-35.71-71.75-32.92-109.11C422.18,182.6,422.29,181.31,422.41,180Z" style="fill:#41D99F"></path><path d="M422.41,180c2.27-23.46,7.7-45.67-1.9-68.23C402.89,70.37,349.74,48.39,308.44,68,287.32,78,269.26,92.63,246,98,183.22,112.49,86.32,35.29,52.15,125.17c-11.73,30.84-7,71.48,14.21,97.26,6.81,8.27,15.13,15.47,20.17,24.93C100.32,273.25,80.8,301.7,72,325.85c-20.9,57.07,57.9,88.65,100.67,94.47C243.37,430,301.69,349,372,382c49,23,92-33,83-89-5.89-36.66-35.71-71.75-32.92-109.11C422.18,182.6,422.29,181.31,422.41,180Z" style="fill:#fff;opacity:0.7000000000000001"></path></g><g id="freepik--Device--inject-1--inject-1"><path d="M140.83,183.43H367.5a10.67,10.67,0,0,1,10.67,10.67v147a11.67,11.67,0,0,1-11.67,11.67H141.83a11.67,11.67,0,0,1-11.67-11.67v-147a10.67,10.67,0,0,1,10.67-10.67Z" style="fill:#fff;stroke:#2e353a;stroke-linecap:round;stroke-linejoin:round"></path><rect x="209.83" y="200.1" width="13.96" height="9.17" style="fill:#2e353a"></rect><rect x="165.6" y="256.67" width="12.96" height="12.86" style="fill:#2e353a"></rect><rect x="222.76" y="211.47" width="13.06" height="12.86" style="fill:#2e353a"></rect><rect x="193.66" y="200.1" width="13.96" height="9.17" style="fill:#2e353a"></rect><rect x="238.02" y="211.47" width="13.06" height="12.86" style="fill:#2e353a"></rect><rect x="225.99" y="200.1" width="13.96" height="9.17" style="fill:#2e353a"></rect><rect x="146.17" y="241.6" width="24.56" height="12.86" style="fill:#2e353a"></rect><rect x="192.23" y="211.47" width="13.06" height="12.86" style="fill:#2e353a"></rect><rect x="146.17" y="256.67" width="17.23" height="12.86" style="fill:#2e353a"></rect><rect x="242.16" y="200.1" width="13.96" height="9.17" style="fill:#2e353a"></rect><rect x="161.7" y="211.47" width="13.06" height="12.86" style="fill:#2e353a"></rect><rect x="161.33" y="200.1" width="13.96" height="9.17" style="fill:#2e353a"></rect><rect x="177.5" y="200.1" width="13.96" height="9.17" style="fill:#2e353a"></rect><rect x="176.96" y="211.47" width="13.06" height="12.86" style="fill:#2e353a"></rect><rect x="207.49" y="211.47" width="13.06" height="12.86" style="fill:#2e353a"></rect><rect x="306.83" y="200.1" width="13.96" height="9.17" style="fill:#2e353a"></rect><rect x="322.99" y="200.1" width="13.96" height="9.17" style="fill:#2e353a"></rect><rect x="314.35" y="211.47" width="13.06" height="12.86" style="fill:#2e353a"></rect><rect x="329.62" y="211.47" width="13.06" height="12.86" style="fill:#2e353a"></rect><rect x="347.6" y="256.67" width="19.23" height="12.86" style="fill:#2e353a"></rect><rect x="339.16" y="200.1" width="13.96" height="9.17" style="fill:#2e353a"></rect><rect x="146.17" y="211.47" width="13.33" height="12.86" style="fill:#2e353a"></rect><rect x="258.33" y="200.1" width="13.96" height="9.17" style="fill:#2e353a"></rect><rect x="274.49" y="200.1" width="13.96" height="9.17" style="fill:#2e353a"></rect><rect x="268.56" y="211.47" width="13.06" height="12.86" style="fill:#2e353a"></rect><rect x="299.09" y="211.47" width="13.06" height="12.86" style="fill:#2e353a"></rect><rect x="253.29" y="211.47" width="13.06" height="12.86" style="fill:#2e353a"></rect><rect x="283.82" y="211.47" width="13.06" height="12.86" style="fill:#2e353a"></rect><rect x="290.66" y="200.1" width="13.96" height="9.17" style="fill:#2e353a"></rect><rect x="271.77" y="256.67" width="12.96" height="12.86" style="fill:#2e353a"></rect><rect x="339.77" y="241.6" width="12.96" height="12.86" style="fill:#2e353a"></rect><rect x="324.6" y="241.6" width="12.96" height="12.86" style="fill:#2e353a"></rect><rect x="332.43" y="256.67" width="12.96" height="12.86" style="fill:#2e353a"></rect><rect x="317.27" y="256.67" width="12.96" height="12.86" style="fill:#2e353a"></rect><rect x="286.93" y="256.67" width="12.96" height="12.86" style="fill:#2e353a"></rect><rect x="302.1" y="256.67" width="12.96" height="12.86" style="fill:#2e353a"></rect><rect x="309.43" y="241.6" width="12.96" height="12.86" style="fill:#2e353a"></rect><rect x="294.27" y="241.6" width="12.96" height="12.86" style="fill:#2e353a"></rect><rect x="355.33" y="200.1" width="11.51" height="9.17" style="fill:#2e353a"></rect><rect x="146.17" y="200.1" width="12.96" height="9.17" style="fill:#2e353a"></rect><rect x="146.17" y="271.73" width="220.67" height="13.37" style="fill:#2e353a"></rect><rect x="344.88" y="211.47" width="21.95" height="12.86" style="fill:#2e353a"></rect><rect x="354.93" y="241.6" width="11.9" height="12.86" style="fill:#2e353a"></rect><polygon points="351.27 239.3 349.06 239.3 349.06 226.54 336.1 226.54 336.1 239.3 333.9 239.3 333.9 226.54 320.94 226.54 320.94 239.3 318.73 239.3 318.73 226.54 305.77 226.54 305.77 239.3 303.56 239.3 303.56 226.54 290.6 226.54 290.6 239.3 288.4 239.3 288.4 226.54 275.44 226.54 275.44 239.3 273.23 239.3 273.23 226.54 260.27 226.54 260.27 239.3 258.06 239.3 258.06 226.54 245.1 226.54 245.1 239.3 242.9 239.3 242.9 226.54 229.94 226.54 229.94 239.3 227.73 239.3 227.73 226.54 214.77 226.54 214.77 239.3 212.56 239.3 212.56 226.54 199.6 226.54 199.6 239.3 197.4 239.3 197.4 226.54 184.44 226.54 184.44 239.3 182.23 239.3 182.23 226.54 169.27 226.54 169.27 239.3 167.06 239.3 167.06 226.54 146.17 226.54 146.17 239.4 366.83 239.4 366.83 226.54 351.27 226.54 351.27 239.3" style="fill:#2e353a"></polygon><rect x="233.6" y="241.6" width="12.96" height="12.86" style="fill:#2e353a"></rect><rect x="279.1" y="241.6" width="12.96" height="12.86" style="fill:#2e353a"></rect><rect x="203.27" y="241.6" width="12.96" height="12.86" style="fill:#2e353a"></rect><rect x="211.1" y="256.67" width="12.96" height="12.86" style="fill:#2e353a"></rect><rect x="218.43" y="241.6" width="12.96" height="12.86" style="fill:#2e353a"></rect><rect x="188.1" y="241.6" width="12.96" height="12.86" style="fill:#2e353a"></rect><rect x="180.77" y="256.67" width="12.96" height="12.86" style="fill:#2e353a"></rect><rect x="195.93" y="256.67" width="12.96" height="12.86" style="fill:#2e353a"></rect><rect x="248.77" y="241.6" width="12.96" height="12.86" style="fill:#2e353a"></rect><rect x="256.6" y="256.67" width="12.96" height="12.86" style="fill:#2e353a"></rect><rect x="263.93" y="241.6" width="12.96" height="12.86" style="fill:#2e353a"></rect><rect x="226.27" y="256.67" width="12.96" height="12.86" style="fill:#2e353a"></rect><rect x="241.43" y="256.67" width="12.96" height="12.86" style="fill:#2e353a"></rect><rect x="172.93" y="241.6" width="12.96" height="12.86" style="fill:#2e353a"></rect><path d="M392.33,91.43H114.67a8.88,8.88,0,0,0-8.57,11.18l20.3,75.58a8.88,8.88,0,0,0,8.57,6.58h28.34V190H345v-5.2h27a8.88,8.88,0,0,0,8.57-6.58l20.3-75.58A8.88,8.88,0,0,0,392.33,91.43Z" style="fill:#2e353a;stroke:#2e353a;stroke-linecap:round;stroke-linejoin:round"></path><polygon points="360.93 178.1 146.07 178.1 124.58 100.77 382.41 100.77 360.93 178.1" style="fill:#41D99F;stroke:#2e353a;stroke-linecap:round;stroke-linejoin:round"></polygon><path d="M160.33,144.16v1h-3.79v-1Z" style="fill:#2e353a"></path><path d="M165.05,144.16v1h-3.8v-1Z" style="fill:#2e353a"></path><path d="M169.77,144.16v1H166v-1Z" style="fill:#2e353a"></path><path d="M174.48,144.16v1h-3.79v-1Z" style="fill:#2e353a"></path><path d="M179.2,144.16v1h-3.8v-1Z" style="fill:#2e353a"></path><path d="M183.92,144.16v1h-3.8v-1Z" style="fill:#2e353a"></path><path d="M188.63,144.16v1h-3.79v-1Z" style="fill:#2e353a"></path><path d="M193.3,149.43l-4.18-11.14h1l4.18,11.14Z" style="fill:#2e353a"></path><path d="M156.51,127.94v1h-3.79v-1Z" style="fill:#2e353a"></path><path d="M161.23,127.94v1h-3.79v-1Z" style="fill:#2e353a"></path><path d="M166,127.94v1h-3.8v-1Z" style="fill:#2e353a"></path><path d="M170.67,127.94v1h-3.8v-1Z" style="fill:#2e353a"></path><path d="M175.38,127.94v1h-3.79v-1Z" style="fill:#2e353a"></path><path d="M183.36,127.94v1h-3.8v-1Z" style="fill:#2e353a"></path><path d="M188.07,127.94v1h-3.79v-1Z" style="fill:#2e353a"></path><path d="M192.79,127.94v1H189v-1Z" style="fill:#2e353a"></path><path d="M197.51,127.94v1h-3.8v-1Z" style="fill:#2e353a"></path><path d="M202.22,127.94v1h-3.79v-1Z" style="fill:#2e353a"></path><path d="M206.94,127.94v1h-3.79v-1Z" style="fill:#2e353a"></path><path d="M211.66,127.94v1h-3.8v-1Z" style="fill:#2e353a"></path><path d="M219.63,127.94v1h-3.79v-1Z" style="fill:#2e353a"></path><path d="M224.35,127.94v1h-3.8v-1Z" style="fill:#2e353a"></path><path d="M229.07,127.94v1h-3.8v-1Z" style="fill:#2e353a"></path><path d="M237,127.94v1h-3.79v-1Z" style="fill:#2e353a"></path><path d="M241.76,127.94v1H238v-1Z" style="fill:#2e353a"></path><path d="M246.48,127.94v1h-3.8v-1Z" style="fill:#2e353a"></path><path d="M264.22,127.94v1h-3.79v-1Z" style="fill:#2e353a"></path><path d="M268.94,127.94v1h-3.8v-1Z" style="fill:#2e353a"></path><path d="M273.66,127.94v1h-3.8v-1Z" style="fill:#2e353a"></path><path d="M278.37,127.94v1h-3.79v-1Z" style="fill:#2e353a"></path><path d="M283.09,127.94v1h-3.8v-1Z" style="fill:#2e353a"></path><path d="M291.06,127.94v1h-3.79v-1Z" style="fill:#2e353a"></path><path d="M295.78,127.94v1H292v-1Z" style="fill:#2e353a"></path><path d="M300.5,127.94v1h-3.8v-1Z" style="fill:#2e353a"></path><path d="M308.47,127.94v1h-3.79v-1Z" style="fill:#2e353a"></path><path d="M316.45,127.94v1h-3.8v-1Z" style="fill:#2e353a"></path></g><g id="freepik--Notebook--inject-1--inject-1"><polygon points="379.69 292.29 368.99 333.57 379.11 336.54 379.69 292.29" style="fill:#fff;stroke:#2e353a;stroke-linecap:round;stroke-linejoin:round"></polygon><path d="M384.49,248.66a8.55,8.55,0,0,1-1.23-6.28c.55-4.07,5.46-5,5.46-5s1.07-.81,5,.68,34.32,5.61,53.74,8.24,25.71.93,25.44,7.6-17.31,66.53-17.57,68.41S384.49,248.66,384.49,248.66Z" style="fill:#fff;stroke:#2e353a;stroke-miterlimit:10"></path><rect x="377.51" y="253.75" width="82.44" height="98.27" transform="translate(44.48 -53.5) rotate(7.72)" style="fill:#fff;stroke:#2e353a;stroke-linecap:round;stroke-linejoin:round"></rect><line x1="450.99" y1="279.16" x2="455.74" y2="279.81" style="fill:none;stroke:#2e353a;stroke-linecap:round;stroke-linejoin:round;stroke-width:0.5px"></line><line x1="421.24" y1="275.13" x2="447.23" y2="278.66" style="fill:none;stroke:#2e353a;stroke-linecap:round;stroke-linejoin:round;stroke-width:0.5px"></line><line x1="389.74" y1="270.86" x2="417.48" y2="274.62" style="fill:none;stroke:#2e353a;stroke-linecap:round;stroke-linejoin:round;stroke-width:0.5px"></line><line x1="443.55" y1="286.97" x2="454.57" y2="288.47" style="fill:none;stroke:#2e353a;stroke-linecap:round;stroke-linejoin:round;stroke-width:0.5px"></line><line x1="388.57" y1="279.52" x2="432.28" y2="285.44" style="fill:none;stroke:#2e353a;stroke-linecap:round;stroke-linejoin:round;stroke-width:0.5px"></line><line x1="410.75" y1="291.34" x2="453.4" y2="297.12" style="fill:none;stroke:#2e353a;stroke-linecap:round;stroke-linejoin:round;stroke-width:0.5px"></line><line x1="387.39" y1="288.17" x2="406.36" y2="290.75" style="fill:none;stroke:#2e353a;stroke-linecap:round;stroke-linejoin:round;stroke-width:0.5px"></line><line x1="424.92" y1="302.08" x2="452.22" y2="305.78" style="fill:none;stroke:#2e353a;stroke-linecap:round;stroke-linejoin:round;stroke-width:0.5px"></line><line x1="401.75" y1="298.93" x2="421.79" y2="301.65" style="fill:none;stroke:#2e353a;stroke-linecap:round;stroke-linejoin:round;stroke-width:0.5px"></line><line x1="386.22" y1="296.83" x2="398.3" y2="298.47" style="fill:none;stroke:#2e353a;stroke-linecap:round;stroke-linejoin:round;stroke-width:0.5px"></line><line x1="441.28" y1="313.11" x2="451.05" y2="314.43" style="fill:none;stroke:#2e353a;stroke-linecap:round;stroke-linejoin:round;stroke-width:0.5px"></line><line x1="385.05" y1="305.49" x2="434.71" y2="312.22" style="fill:none;stroke:#2e353a;stroke-linecap:round;stroke-linejoin:round;stroke-width:0.5px"></line><line x1="422.26" y1="319.34" x2="449.88" y2="323.09" style="fill:none;stroke:#2e353a;stroke-linecap:round;stroke-linejoin:round;stroke-width:0.5px"></line><line x1="383.87" y1="314.14" x2="417.56" y2="318.71" style="fill:none;stroke:#2e353a;stroke-linecap:round;stroke-linejoin:round;stroke-width:0.5px"></line><line x1="430.79" y1="329.32" x2="448.7" y2="331.74" style="fill:none;stroke:#2e353a;stroke-linecap:round;stroke-linejoin:round;stroke-width:0.5px"></line><line x1="394.47" y1="324.39" x2="426.41" y2="328.72" style="fill:none;stroke:#2e353a;stroke-linecap:round;stroke-linejoin:round;stroke-width:0.5px"></line><line x1="382.7" y1="322.8" x2="390.71" y2="323.88" style="fill:none;stroke:#2e353a;stroke-linecap:round;stroke-linejoin:round;stroke-width:0.5px"></line><path d="M466.18,259.74s1.4-13.58,6.4-8.12" style="fill:none;stroke:#2e353a;stroke-linecap:round;stroke-linejoin:round"></path><polygon points="438.48 364.35 438.39 372.98 433.36 365.88 413.17 297.97 418.29 296.44 438.48 364.35" style="fill:#fff;stroke:#2e353a;stroke-linecap:round;stroke-linejoin:round"></polygon><rect x="424.37" y="295.74" width="2.91" height="70.85" transform="matrix(0.96, -0.28, 0.28, 0.96, -76.71, 135.07)" style="fill:#41D99F;stroke:#2e353a;stroke-linecap:round;stroke-linejoin:round;stroke-width:0.5px"></rect><polygon points="438.48 364.37 433.37 365.89 438.39 372.98 438.48 364.37" style="fill:none;stroke:#2e353a;stroke-linecap:round;stroke-linejoin:round"></polygon><polygon points="435.88 369.43 438.39 372.98 438.44 368.67 435.88 369.43" style="fill:#2e353a;stroke:#2e353a;stroke-linecap:round;stroke-linejoin:round"></polygon><path d="M413.47,289.6h0a2.68,2.68,0,0,0-1.8,3.32l1.5,5.05,5.12-1.52-1.5-5.05A2.68,2.68,0,0,0,413.47,289.6Z" style="fill:#fff;stroke:#2e353a;stroke-linecap:round;stroke-linejoin:round"></path><path d="M413.47,289.6h0a2.68,2.68,0,0,0-1.8,3.32l.72,2.41,5.11-1.52-.71-2.41A2.68,2.68,0,0,0,413.47,289.6Z" style="fill:#2e353a;stroke:#2e353a;stroke-linecap:round;stroke-linejoin:round"></path></g></svg>