<svg xmlns="http://www.w3.org/2000/svg" viewBox="0 0 500 500"><g id="freepik--background-simple--inject-49"><path d="M465,182.66c-16-52.31-57.15-94.18-105.85-116.25C312.72,45.35,254,35,210,67.35c-29,21.34-45.4,55.54-71.93,79.47-13.19,11.9-27.63,15.77-43.32,22.88-38.25,17.35-70.26,50.79-72.89,94.92-4.4,73.77,54.08,124.8,119.33,141.53,86.23,22.12,150.68,22.12,209.91-1.77,30.76-12.4,62.06-28.1,84.24-53.78,33.54-38.85,42.8-94,35.18-143.93A171.09,171.09,0,0,0,465,182.66Z" style="fill:#41D99F"></path><path d="M465,182.66c-16-52.31-57.15-94.18-105.85-116.25C312.72,45.35,254,35,210,67.35c-29,21.34-45.4,55.54-71.93,79.47-13.19,11.9-27.63,15.77-43.32,22.88-38.25,17.35-70.26,50.79-72.89,94.92-4.4,73.77,54.08,124.8,119.33,141.53,86.23,22.12,150.68,22.12,209.91-1.77,30.76-12.4,62.06-28.1,84.24-53.78,33.54-38.85,42.8-94,35.18-143.93A171.09,171.09,0,0,0,465,182.66Z" style="fill:#fff;opacity:0.8"></path></g><g id="freepik--Page--inject-49"><rect x="72" y="39" width="343" height="208" style="fill:#fff;stroke:#263238;stroke-linecap:round;stroke-linejoin:round"></rect><rect x="83.67" y="66.33" width="186" height="16.25" style="fill:none;stroke:#263238;stroke-linecap:round;stroke-linejoin:round"></rect><rect x="83.67" y="91.79" width="186" height="93.88" style="fill:none;stroke:#263238;stroke-linecap:round;stroke-linejoin:round"></rect><rect x="280.21" y="159.66" width="125.97" height="74.78" style="fill:none;stroke:#263238;stroke-linecap:round;stroke-linejoin:round"></rect><line x1="280.21" y1="234.44" x2="406.18" y2="159.66" style="fill:none;stroke:#263238;stroke-linecap:round;stroke-linejoin:round"></line><line x1="406.18" y1="234.44" x2="280.21" y2="159.66" style="fill:none;stroke:#263238;stroke-linecap:round;stroke-linejoin:round"></line><line x1="237.07" y1="199.93" x2="267.55" y2="199.93" style="fill:none;stroke:#263238;stroke-linecap:round;stroke-linejoin:round"></line><line x1="183" y1="199.93" x2="230.74" y2="199.93" style="fill:none;stroke:#263238;stroke-linecap:round;stroke-linejoin:round"></line><line x1="109.37" y1="199.93" x2="173.79" y2="199.93" style="fill:none;stroke:#263238;stroke-linecap:round;stroke-linejoin:round"></line><line x1="84.64" y1="199.93" x2="101.89" y2="199.93" style="fill:none;stroke:#263238;stroke-linecap:round;stroke-linejoin:round"></line><line x1="129.5" y1="208.55" x2="267.55" y2="208.55" style="fill:none;stroke:#263238;stroke-linecap:round;stroke-linejoin:round"></line><line x1="84.64" y1="208.55" x2="122.6" y2="208.55" style="fill:none;stroke:#263238;stroke-linecap:round;stroke-linejoin:round"></line><line x1="202.55" y1="217.18" x2="267.55" y2="217.18" style="fill:none;stroke:#263238;stroke-linecap:round;stroke-linejoin:round"></line><line x1="138.13" y1="217.18" x2="193.35" y2="217.18" style="fill:none;stroke:#263238;stroke-linecap:round;stroke-linejoin:round"></line><line x1="84.64" y1="217.18" x2="131.8" y2="217.18" style="fill:none;stroke:#263238;stroke-linecap:round;stroke-linejoin:round"></line><line x1="192.2" y1="225.81" x2="267.55" y2="225.81" style="fill:none;stroke:#263238;stroke-linecap:round;stroke-linejoin:round"></line><line x1="130.65" y1="225.81" x2="184.72" y2="225.81" style="fill:none;stroke:#263238;stroke-linecap:round;stroke-linejoin:round"></line><line x1="84.64" y1="225.81" x2="124.33" y2="225.81" style="fill:none;stroke:#263238;stroke-linecap:round;stroke-linejoin:round"></line><line x1="234.19" y1="234.44" x2="267.55" y2="234.44" style="fill:none;stroke:#263238;stroke-linecap:round;stroke-linejoin:round"></line><line x1="155.39" y1="234.44" x2="227.86" y2="234.44" style="fill:none;stroke:#263238;stroke-linecap:round;stroke-linejoin:round"></line><line x1="122.6" y1="234.44" x2="149.06" y2="234.44" style="fill:none;stroke:#263238;stroke-linecap:round;stroke-linejoin:round"></line><line x1="96.72" y1="234.44" x2="112.25" y2="234.44" style="fill:none;stroke:#263238;stroke-linecap:round;stroke-linejoin:round"></line><line x1="84.64" y1="234.44" x2="96.72" y2="234.44" style="fill:none;stroke:#263238;stroke-linecap:round;stroke-linejoin:round"></line><rect x="72" y="39" width="343" height="15" style="fill:#41D99F;stroke:#263238;stroke-linecap:round;stroke-linejoin:round"></rect><rect x="121.27" y="43.5" width="286" height="6.05" style="fill:#fff;stroke:#263238;stroke-linecap:round;stroke-linejoin:round"></rect><rect x="77.28" y="43.5" width="38.03" height="6.05" style="fill:#fff;stroke:#263238;stroke-linecap:round;stroke-linejoin:round"></rect><rect x="304.7" y="74.96" width="130" height="74" style="fill:#fff;stroke:#263238;stroke-linecap:round;stroke-linejoin:round"></rect><rect x="304.7" y="134.96" width="130" height="14" style="fill:#fff;stroke:#263238;stroke-linecap:round;stroke-linejoin:round"></rect><polygon points="386.81 106.26 352.6 86.51 352.6 126.01 386.81 106.26" style="fill:#41D99F;stroke:#263238;stroke-linecap:round;stroke-linejoin:round"></polygon><rect x="301.49" y="71.08" width="7.48" height="7.48" style="fill:#fff;stroke:#263238;stroke-linecap:round;stroke-linejoin:round"></rect><rect x="430.62" y="71.08" width="7.48" height="7.48" style="fill:#fff;stroke:#263238;stroke-linecap:round;stroke-linejoin:round"></rect><rect x="301.49" y="143.84" width="7.48" height="7.48" style="fill:#fff;stroke:#263238;stroke-linecap:round;stroke-linejoin:round"></rect><rect x="430.62" y="143.84" width="7.48" height="7.48" style="fill:#fff;stroke:#263238;stroke-linecap:round;stroke-linejoin:round"></rect><path d="M149.34,135.84v13h-3.23V119.92h3.23v13h7.11v-13h3.22v28.94h-3.22v-13Z" style="fill:#263238"></path><path d="M167.15,148.86v-26h-5.33v-2.94h13.85v2.94h-5.33v26Z" style="fill:#263238"></path><path d="M188.52,148.82h-3.1l-4.79-23v23.07h-2.81V119.92h4.5L187.08,143l4.59-23.11h4.5v28.94h-3.06V125.59Z" style="fill:#263238"></path><path d="M199.48,148.86V119.92h3.22v26H211v2.94Z" style="fill:#263238"></path><path d="M417.2,145.5l6.91,31a1.09,1.09,0,0,0,2,.19l4.48-9.43a1.07,1.07,0,0,1,1-.62l10.42.57a1.09,1.09,0,0,0,.81-1.87L419,144.43A1.09,1.09,0,0,0,417.2,145.5Z" style="fill:#263238"></path><rect x="436.33" y="173" width="9.33" height="9.33" style="fill:#fff;stroke:#263238;stroke-linecap:round;stroke-linejoin:round;stroke-width:0.75px"></rect><rect x="435.58" y="172.26" width="1.4" height="1.4" style="fill:#263238"></rect><rect x="440.32" y="172.26" width="1.4" height="1.4" style="fill:#263238"></rect><rect x="444.86" y="172.26" width="1.4" height="1.4" style="fill:#263238"></rect><rect x="435.58" y="176.98" width="1.4" height="1.4" style="fill:#263238"></rect><rect x="440.32" y="176.98" width="1.4" height="1.4" style="fill:#263238"></rect><rect x="444.86" y="176.98" width="1.4" height="1.4" style="fill:#263238"></rect><rect x="435.58" y="181.52" width="1.4" height="1.4" style="fill:#263238"></rect><rect x="440.32" y="181.52" width="1.4" height="1.4" style="fill:#263238"></rect><rect x="444.86" y="181.52" width="1.4" height="1.4" style="fill:#263238"></rect></g></svg>