<svg xmlns="http://www.w3.org/2000/svg" xmlns:xlink="http://www.w3.org/1999/xlink" viewBox="0 0 500 500"><defs><clipPath id="freepik--clip-path--inject-1--inject-49"><path d="M123.3,226.88s-1.69-8.95-1.69-12.09,6-22.74,6-22.74-4.69-6.76-5.08-7.26,0-1.45,1-.72a10.68,10.68,0,0,1,1.93,2.18l-2.66-5.33s0-1.29.92-1,3.19,4.44,3.19,4.44l-2.66-6.05a1.09,1.09,0,0,1,1.68-.75c.77.43,2.92,4.87,2.92,4.87l-.73-4.6s1-1.61,1.94.48c.46,1,2.41,8,2.41,8l3.43-1.72a1.09,1.09,0,0,1,1.44.44h0a1.1,1.1,0,0,1-.24,1.38c-.91.76-2.43,2.06-2.93,2.56a36.41,36.41,0,0,0-2.42,3.14l-1.22,23.24,1.22,10.62Z" style="fill:#fff;stroke:#263238;stroke-linecap:round;stroke-linejoin:round"></path></clipPath><clipPath id="freepik--clip-path-2--inject-1--inject-49"><path d="M136.32,256.28s8.77,9.13,9.06,10.79-20.67,28.7-23.84,31.35-9.74,9.23-9.74,9.23l-19-10.53S115.7,262.3,117,259.4s5-10.91,5-10.91.07-10.21-.43-18.17.3-11.47.72-12.66,4.09-2.1,6.79-1.58,2.37.84,2.37.84,3,14.85,3.14,15.58S136.32,256.28,136.32,256.28Z" style="fill:#fff;stroke:#263238;stroke-linecap:round;stroke-linejoin:round"></path></clipPath><clipPath id="freepik--clip-path-3--inject-1--inject-49"><path d="M128.87,277.22s5.78,9.4,8.52,14.82,6.36,13.39,9.53,13.85,5-4.23,5.18-5.95-2.37-5.06-3.42-12.11-3.3-20.76-3.3-20.76l-2.2-2.56" style="fill:#fff;stroke:#263238;stroke-linecap:round;stroke-linejoin:round"></path></clipPath><clipPath id="freepik--clip-path-4--inject-1--inject-49"><path d="M132.39,221.89l-1-5s.34-.32-2.37-.84-8.39.07-8.82,1.26c-.25.72-1.15,2.89,1.22,5.56A14,14,0,0,1,132.39,221.89Z" style="fill:#fff;stroke:#263238;stroke-linecap:round;stroke-linejoin:round"></path></clipPath></defs><!--Responsive--><g id="freepik--background-simple--inject-1--inject-49"><path d="M450.6,254.14c2.07-27.54-4.34-56.32-12.92-82C424.93,134.09,400.17,95,358.48,86c-24-5.2-48.5.37-69.11,13.39-19.82,12.53-35.28,28.71-59.64,31.85-24.65,3.17-49.94,1.89-74.72,1.89-63.7,0-115.4,66.93-102.48,136.64s73.86,118,125.56,118c46.45,0,84.67-27.87,128.8-35.36,21.88-3.71,43.85.68,65.51-4.88,25.16-6.46,48.83-21.88,62.77-44.21C444.68,288.16,449.3,271.39,450.6,254.14Z" style="fill:#41D99F"></path><path d="M450.6,254.14c2.07-27.54-4.34-56.32-12.92-82C424.93,134.09,400.17,95,358.48,86c-24-5.2-48.5.37-69.11,13.39-19.82,12.53-35.28,28.71-59.64,31.85-24.65,3.17-49.94,1.89-74.72,1.89-63.7,0-115.4,66.93-102.48,136.64s73.86,118,125.56,118c46.45,0,84.67-27.87,128.8-35.36,21.88-3.71,43.85.68,65.51-4.88,25.16-6.46,48.83-21.88,62.77-44.21C444.68,288.16,449.3,271.39,450.6,254.14Z" style="fill:#fff;opacity:0.7000000000000001"></path></g><g id="freepik--device-2--inject-1--inject-49"><rect x="383.53" y="262.76" width="78.63" height="141.7" rx="6.75" style="fill:#263238;stroke:#263238;stroke-miterlimit:10"></rect><path d="M428.28,271.23h-9.79a1,1,0,0,1-1-1h0a1,1,0,0,1,1-1h9.79a1,1,0,0,1,1,1h0A1,1,0,0,1,428.28,271.23Z" style="fill:#fff"></path><path d="M457.19,391.8H388.5V271.34h16.28l1.83,1.52a3.58,3.58,0,0,0,2.28.82h28.72a3.58,3.58,0,0,0,2.36-.88l1.65-1.46h15.57Z" style="fill:#41D99F;stroke:#263238;stroke-linecap:round;stroke-linejoin:round"></path><path d="M425,395.51a1.57,1.57,0,1,0-1.57,1.56A1.56,1.56,0,0,0,425,395.51Z" style="fill:#fff"></path><line x1="453.5" y1="367.46" x2="392.46" y2="367.46" style="fill:none;stroke:#263238;stroke-linecap:round;stroke-linejoin:round"></line><line x1="453.5" y1="372.66" x2="392.46" y2="372.66" style="fill:none;stroke:#263238;stroke-linecap:round;stroke-linejoin:round"></line><line x1="453.5" y1="377.86" x2="392.46" y2="377.86" style="fill:none;stroke:#263238;stroke-linecap:round;stroke-linejoin:round"></line><line x1="453.5" y1="383.06" x2="392.46" y2="383.06" style="fill:none;stroke:#263238;stroke-linecap:round;stroke-linejoin:round"></line><line x1="453.5" y1="388.26" x2="392.46" y2="388.26" style="fill:none;stroke:#263238;stroke-linecap:round;stroke-linejoin:round"></line><rect x="392.5" y="279.59" width="61.28" height="13.17" rx="1.75" style="fill:#263238;stroke:#263238;stroke-linecap:round;stroke-linejoin:round"></rect><rect x="392" y="296.36" width="61.77" height="13.16" rx="1.75" style="fill:#fff;stroke:#263238;stroke-linecap:round;stroke-linejoin:round"></rect><rect x="392" y="315.6" width="61.77" height="13.17" rx="1.75" style="fill:#fff;stroke:#263238;stroke-linecap:round;stroke-linejoin:round"></rect><rect x="392" y="332.11" width="61.59" height="32.15" rx="3.52" style="fill:#263238;stroke:#263238;stroke-linecap:round;stroke-linejoin:round"></rect><path d="M430.42,340.25a4.57,4.57,0,1,0-4.57,4.57A4.57,4.57,0,0,0,430.42,340.25Z" style="fill:#fff;stroke:#263238;stroke-linecap:round;stroke-linejoin:round"></path><path d="M395.59,364.26H450c2,0,3.59-1.09,3.59-2.43V350.41l-17.19-8.27-12.25,14.17L414,349.4l-20.13,14.53A4.81,4.81,0,0,0,395.59,364.26Z" style="fill:#fff;stroke:#263238;stroke-linecap:round;stroke-linejoin:round"></path><path d="M409.33,228.52h-6v-7L385.19,232l18.13,10.47v-7h2.51v15.34h7V232A3.5,3.5,0,0,0,409.33,228.52Z" style="fill:#263238"></path></g><g id="freepik--device-1--inject-1--inject-49"><path d="M272.42,372.64v-23.7h-69.8v23.7a34.31,34.31,0,0,1-7.41,21.3l-3.06,3.86h90.74l-3.05-3.86A34.32,34.32,0,0,1,272.42,372.64Z" style="fill:#fff;stroke:#263238;stroke-linecap:round;stroke-linejoin:round;stroke-width:1.0954300000000001px"></path><path d="M198.33,389.23h78.38a34.34,34.34,0,0,1-4.29-16.59v-23.7h-69.8v23.7A34.22,34.22,0,0,1,198.33,389.23Z" style="fill:#41D99F;mix-blend-mode:multiply"></path><rect x="202.62" y="352.5" width="69.8" height="10.01" style="fill:#263238;stroke:#263238;stroke-linecap:round;stroke-linejoin:round;stroke-width:1.0954300000000001px"></rect><rect x="97.25" y="146" width="280.55" height="210.41" rx="9.29" style="fill:#263238;stroke:#263238;stroke-linecap:round;stroke-linejoin:round;stroke-width:1.0954300000000001px"></rect><path d="M97.25,323.7H377.8a0,0,0,0,1,0,0v23.41a9.29,9.29,0,0,1-9.29,9.29h-262a9.29,9.29,0,0,1-9.29-9.29V323.7a0,0,0,0,1,0,0Z" style="fill:#fff;stroke:#263238;stroke-linecap:round;stroke-linejoin:round;stroke-width:1.0954300000000001px"></path><rect x="111.36" y="159.09" width="252.32" height="148.65" style="fill:#41D99F;stroke:#263238;stroke-linecap:round;stroke-linejoin:round;stroke-width:1.0954300000000001px"></rect><path d="M242.7,340.06a5.18,5.18,0,1,0-5.18,5.17A5.18,5.18,0,0,0,242.7,340.06Z" style="fill:#263238;stroke:#263238;stroke-linecap:round;stroke-linejoin:round;stroke-width:1.0954300000000001px"></path><rect x="192.15" y="397.8" width="90.76" height="4.23" style="fill:#fff;stroke:#263238;stroke-linecap:round;stroke-linejoin:round;stroke-width:1.0954300000000001px"></rect><rect x="130.46" y="175.74" width="220.93" height="22.36" rx="3.52" style="fill:#263238;stroke:#263238;stroke-linecap:round;stroke-linejoin:round"></rect><rect x="129.38" y="240.7" width="64.25" height="49.51" rx="3.52" style="fill:#263238;stroke:#263238;stroke-linecap:round;stroke-linejoin:round"></rect><path d="M170.9,251.61a5.59,5.59,0,1,0-5.59,5.59A5.59,5.59,0,0,0,170.9,251.61Z" style="fill:#fff;stroke:#263238;stroke-linecap:round;stroke-linejoin:round"></path><path d="M133.12,290.21h56.76a3.75,3.75,0,0,0,3.75-3.75V268.88L175.7,256.14,162.92,278l-10.65-10.65-21,22.39A3.73,3.73,0,0,0,133.12,290.21Z" style="fill:#fff;stroke:#263238;stroke-linecap:round;stroke-linejoin:round"></path><rect x="132.04" y="206.62" width="98.47" height="22.36" rx="3.52" style="fill:#fff;stroke:#263238;stroke-linecap:round;stroke-linejoin:round"></rect><rect x="252.93" y="206.62" width="98.47" height="22.36" rx="3.52" style="fill:#fff;stroke:#263238;stroke-linecap:round;stroke-linejoin:round"></rect><line x1="349.77" y1="241.76" x2="209.86" y2="241.76" style="fill:none;stroke:#263238;stroke-linecap:round;stroke-linejoin:round"></line><line x1="349.77" y1="251.34" x2="209.86" y2="251.34" style="fill:none;stroke:#263238;stroke-linecap:round;stroke-linejoin:round"></line><line x1="349.77" y1="260.93" x2="209.86" y2="260.93" style="fill:none;stroke:#263238;stroke-linecap:round;stroke-linejoin:round"></line><line x1="349.77" y1="270.51" x2="209.86" y2="270.51" style="fill:none;stroke:#263238;stroke-linecap:round;stroke-linejoin:round"></line><line x1="349.77" y1="280.09" x2="209.86" y2="280.09" style="fill:none;stroke:#263238;stroke-linecap:round;stroke-linejoin:round"></line><line x1="349.77" y1="289.68" x2="209.86" y2="289.68" style="fill:none;stroke:#263238;stroke-linecap:round;stroke-linejoin:round"></line><rect x="128.13" y="168.64" width="227.87" height="132.04" style="fill:none;stroke:#fff;stroke-linecap:round;stroke-linejoin:round;stroke-width:2px"></rect><path d="M132.54,168.64a4.41,4.41,0,1,0-4.41,4.41A4.4,4.4,0,0,0,132.54,168.64Z" style="fill:#fff"></path><path d="M360.41,168.64a4.41,4.41,0,1,0-4.4,4.41A4.4,4.4,0,0,0,360.41,168.64Z" style="fill:#fff"></path><path d="M244.43,168.64a4.41,4.41,0,1,0-4.41,4.41A4.4,4.4,0,0,0,244.43,168.64Z" style="fill:#fff"></path><path d="M244.43,300.84a4.41,4.41,0,1,0-4.41,4.4A4.4,4.4,0,0,0,244.43,300.84Z" style="fill:#fff"></path><path d="M132.54,300.84a4.41,4.41,0,1,0-4.41,4.4A4.4,4.4,0,0,0,132.54,300.84Z" style="fill:#fff"></path><path d="M360.41,299.24a4.41,4.41,0,1,0-4.4,4.4A4.4,4.4,0,0,0,360.41,299.24Z" style="fill:#fff"></path></g></svg>